<svg width="40" height="40" viewBox="0 0 40 40" fill="none" xmlns="http://www.w3.org/2000/svg">
<g id="interface/notification-bell">
<path id="Vector" d="M23.3331 35H16.6665C16.6665 35.884 17.0177 36.7319 17.6428 37.357C18.2679 37.9821 19.1158 38.3333 19.9998 38.3333C20.8839 38.3333 21.7317 37.9821 22.3568 37.357C22.982 36.7319 23.3331 35.884 23.3331 35ZM34.8731 30.6383C34.9993 30.3337 35.0323 29.9985 34.9679 29.6751C34.9035 29.3517 34.7447 29.0547 34.5115 28.8217L31.6665 25.9767V16.6667C31.6611 13.8642 30.648 11.1571 28.8121 9.03964C26.9762 6.92222 24.4399 5.53573 21.6665 5.13332V3.33332C21.6665 2.8913 21.4909 2.46737 21.1783 2.15481C20.8658 1.84225 20.4418 1.66666 19.9998 1.66666C19.5578 1.66666 19.1339 1.84225 18.8213 2.15481C18.5087 2.46737 18.3331 2.8913 18.3331 3.33332V5.13332C15.5597 5.53573 13.0235 6.92222 11.1875 9.03964C9.35163 11.1571 8.3385 13.8642 8.33314 16.6667V25.9767L5.48814 28.8217C5.25512 29.0547 5.09645 29.3517 5.03217 29.6749C4.96789 29.9982 5.00089 30.3332 5.12701 30.6377C5.25313 30.9422 5.46669 31.2025 5.74071 31.3857C6.01473 31.5688 6.33689 31.6666 6.66647 31.6667H33.3331C33.6627 31.6667 33.985 31.5691 34.2591 31.386C34.5332 31.203 34.7469 30.9428 34.8731 30.6383ZM29.3098 28.3333H10.6898L11.1781 27.845C11.4907 27.5325 11.6664 27.1086 11.6665 26.6667V16.6667C11.6665 14.4565 12.5444 12.3369 14.1073 10.7741C15.6701 9.2113 17.7897 8.33332 19.9998 8.33332C22.2099 8.33332 24.3296 9.2113 25.8924 10.7741C27.4552 12.3369 28.3331 14.4565 28.3331 16.6667V26.6667C28.3332 27.1086 28.5089 27.5325 28.8215 27.845L29.3098 28.3333Z" fill="#A6A3A3"/>
</g>
</svg>
