<svg width="22" height="22" viewBox="0 0 22 22" fill="none" xmlns="http://www.w3.org/2000/svg">
<path d="M20.0359 2.94938H15.9109V1.37795C15.9109 1.26991 15.8225 1.18152 15.7144 1.18152H14.3394C14.2314 1.18152 14.143 1.26991 14.143 1.37795V2.94938H7.85728V1.37795C7.85728 1.26991 7.76889 1.18152 7.66085 1.18152H6.28585C6.17782 1.18152 6.08943 1.26991 6.08943 1.37795V2.94938H1.96443C1.52983 2.94938 1.17871 3.30049 1.17871 3.73509V20.0387C1.17871 20.4733 1.52983 20.8244 1.96443 20.8244H20.0359C20.4705 20.8244 20.8216 20.4733 20.8216 20.0387V3.73509C20.8216 3.30049 20.4705 2.94938 20.0359 2.94938ZM19.0537 19.0565H2.94657V9.72616H19.0537V19.0565ZM2.94657 8.05652V4.71723H6.08943V5.8958C6.08943 6.00384 6.17782 6.09223 6.28585 6.09223H7.66085C7.76889 6.09223 7.85728 6.00384 7.85728 5.8958V4.71723H14.143V5.8958C14.143 6.00384 14.2314 6.09223 14.3394 6.09223H15.7144C15.8225 6.09223 15.9109 6.00384 15.9109 5.8958V4.71723H19.0537V8.05652H2.94657Z" fill="black" fill-opacity="0.85"/>
</svg>
