<svg width="68" height="68" viewBox="0 0 68 68" fill="none" xmlns="http://www.w3.org/2000/svg">
<g id="interface/chat-circle-plain">
<path id="Vector" d="M34.0002 5.66654C29.663 5.66372 25.3831 6.65665 21.4902 8.56883C17.5973 10.481 14.1953 13.2614 11.5464 16.6957C8.89757 20.1301 7.0725 24.1267 6.21186 28.3776C5.35122 32.6286 5.47799 37.0203 6.58239 41.2146C7.68679 45.4088 9.73935 49.2935 12.5819 52.5693C15.4245 55.8451 18.9811 58.4247 22.9779 60.1091C26.9746 61.7935 31.3047 62.538 35.6345 62.285C39.9643 62.032 44.1782 60.7883 47.9516 58.6499L58.6049 62.2C58.8944 62.2915 59.1966 62.3364 59.5002 62.3332C59.9489 62.3329 60.3911 62.226 60.7905 62.0213C61.1898 61.8166 61.5348 61.52 61.797 61.156C62.0593 60.7919 62.2313 60.3707 62.299 59.9271C62.3667 59.4836 62.328 59.0303 62.1862 58.6045L58.6502 47.9512C61.0992 43.6431 62.374 38.7674 62.3471 33.8118C62.3201 28.8563 60.9923 23.9948 58.4966 19.7135C56.0008 15.4323 52.4246 11.8815 48.1256 9.41636C43.8267 6.95121 38.9558 5.65815 34.0002 5.66654ZM52.8504 48.5094L55.0207 55.026L48.5041 52.8557C48.1065 52.7201 47.6836 52.6752 47.2664 52.7242C46.8492 52.7733 46.4482 52.915 46.0929 53.139C41.3673 56.1297 35.7049 57.2727 30.1892 56.3494C24.6736 55.426 19.6921 52.5011 16.1982 48.1344C12.7044 43.7678 10.9434 38.266 11.2525 32.6822C11.5615 27.0983 13.9188 21.8245 17.8733 17.8701C21.8277 13.9157 27.1015 11.5583 32.6854 11.2493C38.2692 10.9403 43.7709 12.7012 48.1376 16.1951C52.5043 19.6889 55.4292 24.6704 56.3525 30.186C57.2759 35.7017 56.1329 41.3641 53.1422 46.0897C52.9166 46.4459 52.7733 46.848 52.7228 47.2666C52.6724 47.6852 52.7159 48.1098 52.8504 48.5094Z" fill="#167B7D" fill-opacity="0.5"/>
</g>
</svg>
