<svg width="40" height="40" viewBox="0 0 40 40" fill="none" xmlns="http://www.w3.org/2000/svg">
<g id="map/chat">
<path id="Vector" fill-rule="evenodd" clip-rule="evenodd" d="M29.266 37.2989C27.8858 36.7755 26.7089 36.0982 25.7819 35.463C23.7488 36.2863 21.5273 36.7392 19.2033 36.7392C9.51825 36.7392 1.66699 28.8879 1.66699 19.2029C1.66699 9.51791 9.51825 1.66666 19.2033 1.66666C28.8882 1.66666 36.7395 9.51791 36.7395 19.2029C36.7395 22.8358 35.6331 26.2147 33.7391 29.0154C33.6189 31.3312 34.8351 33.4236 36.0974 35.2751C37.203 36.8965 36.9256 38.2033 34.8641 38.3202C33.9401 38.3725 31.9414 38.3133 29.266 37.2989ZM4.8554 19.2029C4.8554 11.2788 11.2792 4.85507 19.2033 4.85507C27.1274 4.85507 33.5511 11.2788 33.5511 19.2029C33.5511 22.3121 32.564 25.1861 30.8856 27.5346C30.143 28.574 30.525 30.5215 30.7797 31.6395C31.027 32.7247 31.5635 33.8777 32.0934 34.8457C31.5861 34.7235 31.0181 34.5532 30.3965 34.3176C28.966 33.7751 27.7839 33.0126 26.9501 32.3727C26.477 32.0095 25.8407 31.9409 25.3011 32.1947C23.4525 33.0641 21.3868 33.5508 19.2033 33.5508C11.2792 33.5508 4.8554 27.1271 4.8554 19.2029ZM11.2322 21.5942C12.5529 21.5942 13.6235 20.5236 13.6235 19.2029C13.6235 17.8823 12.5529 16.8116 11.2322 16.8116C9.91154 16.8116 8.84092 17.8823 8.84092 19.2029C8.84092 20.5236 9.91154 21.5942 11.2322 21.5942ZM21.5946 19.2029C21.5946 20.5236 20.5239 21.5942 19.2033 21.5942C17.8826 21.5942 16.8119 20.5236 16.8119 19.2029C16.8119 17.8823 17.8826 16.8116 19.2033 16.8116C20.5239 16.8116 21.5946 17.8823 21.5946 19.2029ZM27.1743 21.5942C28.4949 21.5942 29.5656 20.5236 29.5656 19.2029C29.5656 17.8823 28.4949 16.8116 27.1743 16.8116C25.8536 16.8116 24.783 17.8823 24.783 19.2029C24.783 20.5236 25.8536 21.5942 27.1743 21.5942Z" fill="#A6A3A3"/>
</g>
</svg>
