<svg width="37" height="37" viewBox="0 0 37 37" fill="none" xmlns="http://www.w3.org/2000/svg">
<g id="interface/clock">
<path id="Vector" d="M18.5013 1.54163C15.1473 1.54163 11.8685 2.53621 9.07976 4.39962C6.29098 6.26303 4.11739 8.91156 2.83385 12.0103C1.55032 15.109 1.21448 18.5188 1.86883 21.8084C2.52317 25.098 4.13829 28.1196 6.50996 30.4913C8.88162 32.863 11.9033 34.4781 15.1929 35.1324C18.4825 35.7868 21.8923 35.451 24.991 34.1674C28.0897 32.8839 30.7382 30.7103 32.6016 27.9215C34.4651 25.1327 35.4596 21.854 35.4596 18.5C35.4543 14.004 33.666 9.69362 30.4868 6.51447C27.3076 3.33531 22.9973 1.54693 18.5013 1.54163ZM18.5013 32.375C15.7571 32.375 13.0745 31.5612 10.7928 30.0366C8.51104 28.512 6.73265 26.345 5.68248 23.8097C4.63232 21.2744 4.35754 18.4846 4.89291 15.7931C5.42828 13.1016 6.74975 10.6293 8.6902 8.68885C10.6307 6.7484 13.1029 5.42693 15.7944 4.89156C18.4859 4.35619 21.2757 4.63096 23.811 5.68113C26.3464 6.7313 28.5133 8.50969 30.038 10.7914C31.5626 13.0732 32.3763 15.7557 32.3763 18.5C32.3722 22.1786 30.9091 25.7054 28.3079 28.3066C25.7067 30.9077 22.1799 32.3709 18.5013 32.375ZM27.7513 18.5C27.7513 18.9088 27.5889 19.301 27.2998 19.5901C27.0106 19.8792 26.6185 20.0416 26.2096 20.0416H18.5013C18.0924 20.0416 17.7003 19.8792 17.4112 19.5901C17.1221 19.301 16.9596 18.9088 16.9596 18.5V9.24996C16.9596 8.84108 17.1221 8.44896 17.4112 8.15984C17.7003 7.87072 18.0924 7.70829 18.5013 7.70829C18.9102 7.70829 19.3023 7.87072 19.5914 8.15984C19.8806 8.44896 20.043 8.84108 20.043 9.24996V16.9583H26.2096C26.6185 16.9583 27.0106 17.1207 27.2998 17.4098C27.5889 17.699 27.7513 18.0911 27.7513 18.5Z" fill="#D95D5D"/>
</g>
</svg>
