<?xml version="1.0" standalone="no"?><!DOCTYPE svg PUBLIC "-//W3C//DTD SVG 1.1//EN" "http://www.w3.org/Graphics/SVG/1.1/DTD/svg11.dtd"><svg t="1691484210337" class="icon" viewBox="0 0 1024 1024" version="1.1" xmlns="http://www.w3.org/2000/svg" p-id="3989" xmlns:xlink="http://www.w3.org/1999/xlink" width="256" height="256"><path d="M353.024 63.701a30.208 30.208 0 0 1 28.459-21.034H622.42c12.843 0 24.278 8.448 28.459 21.034l38.187 114.56h219.477a30.72 30.72 0 0 1 30.123 31.232 30.72 30.72 0 0 1-30.123 31.275h-60.245v646.699c0 51.84-40.448 93.866-90.326 93.866H256c-49.92 0-90.368-42.026-90.368-93.866V240.81h-50.176a30.72 30.72 0 0 1-30.123-31.275 30.72 30.72 0 0 1 30.123-31.275H314.88l38.144-114.56z m247.979 41.558H402.944l-24.32 72.96h246.699l-24.32-72.96zM225.877 240.81v646.656A30.72 30.72 0 0 0 256 918.74h501.973a30.72 30.72 0 0 0 30.123-31.274V240.81H225.877z m145.579 156.458a30.72 30.72 0 0 0-30.123-31.274 30.72 30.72 0 0 0-30.122 31.274v359.808a30.72 30.72 0 0 0 30.122 31.318 30.72 30.72 0 0 0 30.123-31.318V397.27z m130.517-31.274a30.72 30.72 0 0 1 30.123 31.274v359.808a30.72 30.72 0 0 1-30.123 31.318 30.72 30.72 0 0 1-30.122-31.318V397.27a30.72 30.72 0 0 1 30.122-31.274z m190.72 31.274a30.72 30.72 0 0 0-30.122-31.274 30.72 30.72 0 0 0-30.123 31.274v359.808a30.72 30.72 0 0 0 30.123 31.318 30.72 30.72 0 0 0 30.122-31.318V397.27z" p-id="3990"></path></svg>