<svg viewBox="0 0 256 256" xmlns="http://www.w3.org/2000/svg" fill-rule="evenodd" clip-rule="evenodd" stroke-linejoin="round" stroke-miterlimit="2">
  <path d="M31.999 227.83c.384 0 .768-.056 1.142-.169l79.998-23.833a4.034 4.034 0 001.705-1.013l80.721-81.637c.184-.19.281-.425.414-.64l29.266-29.266c4.853-4.853 4.853-12.758 0-17.622l-41.886-41.871c-4.854-4.853-12.759-4.864-17.618 0l-29.91 29.911c-.195.189-.287.43-.43.65L54.46 143.291c-.45.45-.783.993-.978 1.592L28.2 222.603a3.999 3.999 0 00.937 4.034 4 4 0 002.862 1.198v-.005zM138.867 70.173l8.32 8.32-68.182 68.504-13.813-3.138 73.68-73.686h-.005zm-54.87 83.147l68.852-69.164 19.471 19.471-69.958 68.376H83.997V153.32zm103.079-34.943l-73.967 74.817-4.608-15.989 69.472-67.911 9.103 9.088v-.005zM59.944 150.873L76 154.524v21.478A4 4 0 0079.998 180h20.992l5.064 17.602-67.895 20.224 21.785-66.953zM171.399 37.437c1.746-1.736 4.577-1.731 6.302 0l41.881 41.88a4.46 4.46 0 010 6.313l-26.977 26.977-48.183-48.183 26.977-26.982v-.005z" fill="#fff" fill-rule="nonzero" /></svg>