<?xml version="1.0" standalone="no"?><!DOCTYPE svg PUBLIC "-//W3C//DTD SVG 1.1//EN" "http://www.w3.org/Graphics/SVG/1.1/DTD/svg11.dtd"><svg t="1691540344339" class="icon" viewBox="0 0 1026 1024" version="1.1" xmlns="http://www.w3.org/2000/svg" p-id="3984" xmlns:xlink="http://www.w3.org/1999/xlink" width="256.5" height="256"><path d="M1000.683342 124.454842L901.909657 25.681158A89.37434 89.37434 0 0 0 839.283167 0.007519a86.957366 86.957366 0 0 0-62.841333 25.673639l-48.769171 48.769171-517.286218 516.963955c-1.289053 1.289053-2.524395 2.578106-2.524396 3.867159a1.289053 1.289053 0 0 1-1.289053 1.289053c-1.289053 1.289053-1.289053 2.578106-2.578106 3.867159v1.289053c0 1.235342 0 1.235342-1.289053 2.524395l-70.57565 257.810596a26.85527 26.85527 0 0 0 6.445265 25.673639 25.942191 25.942191 0 0 0 19.228373 7.680607c2.578106 0 5.371054 0 6.391555-1.289053l259.153359-71.810993c1.289053 0 1.289053 0 2.578106-1.289053h1.289053c1.289053 0 2.578106-1.289053 3.867159-2.578106a1.289053 1.289053 0 0 0 1.289053-1.289053c1.235342-1.289053 2.524395-1.289053 3.813448-2.524395l515.621192-515.621192 48.769171-48.769171a89.052077 89.052077 0 0 0 0-125.736376zM256.57751 813.399949l-43.612959-43.612959 29.487086-109.086108 123.15827 123.15827-109.032397 29.540797z m10.258713-204.100055l478.560918-478.507208 12.783109 12.783109 43.505538 43.774091-478.560918 478.507208-56.288647-56.449779z m150.389514 150.067251l-56.718331-56.342357 478.775761-478.507208 56.449778 56.449778-478.775761 478.507208zM962.172884 214.258867l-29.487087 29.487087-150.120961-150.067251 30.776139-30.77614a37.275115 37.275115 0 0 1 51.347277 0l98.773685 98.773684a39.208695 39.208695 0 0 1-1.289053 52.58262z m-74.550231 261.892597a26.85527 26.85527 0 0 0-26.85527 26.85527v431.0808a39.906932 39.906932 0 0 1-39.7458 39.7458H92.384386a39.960642 39.960642 0 0 1-39.79951-39.7458V204.000153a39.960642 39.960642 0 0 1 39.79951-39.7458h431.02709a26.85527 26.85527 0 0 0 26.855271-26.85527 26.318165 26.318165 0 0 0-26.855271-26.855271H92.384386A92.006156 92.006156 0 0 0 0.002256 202.925943v728.476064a91.952446 91.952446 0 0 0 92.38213 92.596972h728.690907a92.006156 92.006156 0 0 0 92.38213-92.38213v-428.610115a25.297665 25.297665 0 0 0-25.83477-26.85527z" p-id="3985"></path></svg>