<svg width="50" height="50" viewBox="0 0 50 50" fill="none" xmlns="http://www.w3.org/2000/svg">
<path d="M45.834 6.25H4.16732C3.61478 6.25 3.08488 6.46949 2.69418 6.86019C2.30348 7.25089 2.08398 7.7808 2.08398 8.33333V41.6667C2.08398 42.2192 2.30348 42.7491 2.69418 43.1398C3.08488 43.5305 3.61478 43.75 4.16732 43.75H45.834C46.3865 43.75 46.9164 43.5305 47.3071 43.1398C47.6978 42.7491 47.9173 42.2192 47.9173 41.6667V8.33333C47.9173 7.7808 47.6978 7.25089 47.3071 6.86019C46.9164 6.46949 46.3865 6.25 45.834 6.25ZM43.7507 39.5833H6.25065V19.7437L24.2257 26.9354C24.7235 27.1326 25.2778 27.1326 25.7757 26.9354L43.7507 19.7437V39.5833ZM43.7507 15.2562L25.0007 22.7563L6.25065 15.2562V10.4167H43.7507V15.2562Z" fill="black" fill-opacity="0.7"/>
</svg>
