<svg width="38" height="30" viewBox="0 0 38 30" fill="none" xmlns="http://www.w3.org/2000/svg">
<g id="color">
<path id="Vector" d="M8.97075 30C13.8324 30 17.7735 23.2843 17.7735 15C17.7735 6.71573 13.8324 0 8.97075 0C4.10911 0 0.167969 6.71573 0.167969 15C0.167969 23.2843 4.10911 30 8.97075 30Z" fill="white"/>
<path id="Vector_2" d="M28.9903 30.0002C33.8519 30.0002 37.7931 23.2845 37.7931 15.0002C37.7931 6.71597 33.8519 0.000244141 28.9903 0.000244141C24.1286 0.000244141 20.1875 6.71597 20.1875 15.0002C20.1875 23.2845 24.1286 30.0002 28.9903 30.0002Z" fill="white"/>
<path id="Vector_3" d="M28.9903 30.0002C33.8519 30.0002 37.7931 23.2845 37.7931 15.0002C37.7931 6.71597 33.8519 0.000244141 28.9903 0.000244141C24.1286 0.000244141 20.1875 6.71597 20.1875 15.0002C20.1875 23.2845 24.1286 30.0002 28.9903 30.0002Z" fill="white"/>
<path id="Union" fill-rule="evenodd" clip-rule="evenodd" d="M36.1572 15.0007C36.1572 18.9036 35.2254 22.3572 33.804 24.7794C32.3599 27.24 30.6027 28.3649 28.9903 28.3649C27.3779 28.3649 25.6206 27.24 24.1766 24.7794C23.4352 23.5161 22.8271 21.9722 22.4148 20.2304C23.1794 20.7269 24.0916 21.0154 25.0712 21.0154C27.7683 21.0154 29.9548 18.8288 29.9548 16.1317C29.9548 13.4345 27.7683 11.248 25.0712 11.248C23.893 11.248 22.8123 11.6651 21.9688 12.3598C22.2829 9.54837 23.0855 7.08137 24.1766 5.22209C25.6206 2.76145 27.3779 1.63658 28.9903 1.63658C30.6027 1.63658 32.3599 2.76145 33.804 5.22209C35.2254 7.64428 36.1572 11.0978 36.1572 15.0007ZM20.1994 15.7879C20.1915 15.5272 20.1875 15.2648 20.1875 15.0007C20.1875 6.71646 24.1286 0.000732422 28.9903 0.000732422C33.8519 0.000732422 37.7931 6.71646 37.7931 15.0007C37.7931 23.285 33.8519 30.0007 28.9903 30.0007C24.5275 30.0007 20.8404 24.3418 20.2654 17.0053C20.2142 16.7218 20.1875 16.4299 20.1875 16.1317C20.1875 16.0161 20.1915 15.9015 20.1994 15.7879Z" fill="#9E9E9E"/>
<path id="Vector_4" d="M8.97075 30C13.8324 30 17.7735 23.2843 17.7735 15C17.7735 6.71573 13.8324 0 8.97075 0C4.10911 0 0.167969 6.71573 0.167969 15C0.167969 23.2843 4.10911 30 8.97075 30Z" fill="white"/>
<path id="Union_2" fill-rule="evenodd" clip-rule="evenodd" d="M16.138 15C16.138 18.9029 15.2062 22.3565 13.7847 24.7786C12.3407 27.2393 10.5835 28.3642 8.97107 28.3642C7.35866 28.3642 5.60143 27.2393 4.15739 24.7786C3.41612 23.5155 2.80801 21.9719 2.39576 20.2303C3.16023 20.7267 4.07226 21.015 5.05162 21.015C7.74879 21.015 9.93527 18.8284 9.93527 16.1313C9.93527 13.4341 7.74879 11.2476 5.05162 11.2476C3.87365 11.2476 2.79308 11.6646 1.94954 12.3592C2.26365 9.54768 3.06626 7.08066 4.15739 5.22136C5.60143 2.76071 7.35866 1.63584 8.97107 1.63584C10.5835 1.63584 12.3407 2.76071 13.7847 5.22136C15.2062 7.64354 16.138 11.0971 16.138 15ZM0.180115 15.7841C0.172267 15.5245 0.168294 15.263 0.168294 15C0.168294 6.71573 4.10943 0 8.97107 0C13.8327 0 17.7738 6.71573 17.7738 15C17.7738 23.2843 13.8327 30 8.97107 30C4.50908 30 0.82247 24.343 0.246513 17.0083C0.194914 16.7238 0.167969 16.4307 0.167969 16.1313C0.167969 16.0145 0.172063 15.8988 0.180115 15.7841Z" fill="#9E9E9E"/>
</g>
</svg>
