<svg width="24" height="24" viewBox="0 0 24 24" fill="none" xmlns="http://www.w3.org/2000/svg">
<path d="M5.98186 21C8.89885 21 11.2635 16.9706 11.2635 12C11.2635 7.02944 8.89885 3 5.98186 3C3.06488 3 0.700195 7.02944 0.700195 12C0.700195 16.9706 3.06488 21 5.98186 21Z" fill="white"/>
<path d="M17.9926 21C20.9096 21 23.2743 16.9706 23.2743 12C23.2743 7.02944 20.9096 3 17.9926 3C15.0756 3 12.7109 7.02944 12.7109 12C12.7109 16.9706 15.0756 21 17.9926 21Z" fill="white"/>
<path d="M17.9926 21C20.9096 21 23.2743 16.9706 23.2743 12C23.2743 7.02944 20.9096 3 17.9926 3C15.0756 3 12.7109 7.02944 12.7109 12C12.7109 16.9706 15.0756 21 17.9926 21Z" fill="white"/>
<path fill-rule="evenodd" clip-rule="evenodd" d="M22.2928 12.0005C22.2928 14.3422 21.7337 16.4144 20.8808 17.8677C20.0144 19.3441 18.96 20.019 17.9926 20.019C17.0252 20.019 15.9708 19.3441 15.1044 17.8677C14.6596 17.1097 14.2947 16.1834 14.0473 15.1383C14.5061 15.4362 15.0534 15.6093 15.6411 15.6093C17.2594 15.6093 18.5713 14.2974 18.5713 12.679C18.5713 11.0607 17.2594 9.74883 15.6411 9.74883C14.9343 9.74883 14.2858 9.99913 13.7797 10.4159C13.9682 8.72907 14.4497 7.24887 15.1044 6.1333C15.9708 4.65692 17.0252 3.98199 17.9926 3.98199C18.96 3.98199 20.0144 4.65692 20.8808 6.1333C21.7337 7.58661 22.2928 9.65875 22.2928 12.0005ZM12.7181 12.4728C12.7133 12.3164 12.7109 12.1589 12.7109 12.0005C12.7109 7.02993 15.0756 3.00049 17.9926 3.00049C20.9096 3.00049 23.2743 7.02993 23.2743 12.0005C23.2743 16.9711 20.9096 21.0005 17.9926 21.0005C15.315 21.0005 13.1027 17.6051 12.7577 13.2032C12.727 13.0332 12.7109 12.858 12.7109 12.679C12.7109 12.6097 12.7133 12.5409 12.7181 12.4728Z" fill="#424242"/>
<path d="M5.98186 21C8.89885 21 11.2635 16.9706 11.2635 12C11.2635 7.02944 8.89885 3 5.98186 3C3.06488 3 0.700195 7.02944 0.700195 12C0.700195 16.9706 3.06488 21 5.98186 21Z" fill="white"/>
<path fill-rule="evenodd" clip-rule="evenodd" d="M10.282 12C10.282 14.3417 9.72295 16.4139 8.87007 17.8672C8.00365 19.3436 6.94931 20.0185 5.98186 20.0185C5.01442 20.0185 3.96008 19.3436 3.09366 17.8672C2.64889 17.1093 2.28402 16.1831 2.03667 15.1382C2.49536 15.436 3.04257 15.609 3.63019 15.609C5.24849 15.609 6.56038 14.2971 6.56038 12.6788C6.56038 11.0604 5.24849 9.74854 3.63019 9.74854C2.92341 9.74854 2.27507 9.99878 1.76894 10.4155C1.95741 8.72861 2.43898 7.24839 3.09366 6.13282C3.96008 4.65643 5.01442 3.98151 5.98186 3.98151C6.94931 3.98151 8.00365 4.65643 8.87007 6.13282C9.72295 7.58613 10.282 9.65826 10.282 12ZM0.707288 12.4705C0.702579 12.3147 0.700195 12.1578 0.700195 12C0.700195 7.02944 3.06488 3 5.98186 3C8.89885 3 11.2635 7.02944 11.2635 12C11.2635 16.9706 8.89885 21 5.98186 21C3.30467 21 1.0927 17.6058 0.747127 13.205C0.716167 13.0343 0.7 12.8584 0.7 12.6788C0.7 12.6087 0.702456 12.5393 0.707288 12.4705Z" fill="#424242"/>
</svg>
