<?xml version="1.0" standalone="no"?>
<!DOCTYPE svg PUBLIC "-//W3C//DTD SVG 1.1//EN" "http://www.w3.org/Graphics/SVG/1.1/DTD/svg11.dtd"><svg t="1691560852126" class="icon" viewBox="0 0 1024 1024" version="1.1" xmlns="http://www.w3.org/2000/svg" p-id="1602" xmlns:xlink="http://www.w3.org/1999/xlink" width="256" height="256">
  <path d="M192 320l64 0 0 64-64 0 0-64Z" fill="#D95D5D" p-id="1603"></path>
  <path d="M320 320l448 0 0 64-448 0 0-64Z" fill="#D95D5D" p-id="1604"></path>
  <path d="M192 512l64 0 0 64-64 0 0-64Z" fill="#D95D5D" p-id="1605"></path>
  <path d="M320 512l448 0 0 64-448 0 0-64Z" fill="#D95D5D" p-id="1606"></path>
  <path d="M192 704l64 0 0 64-64 0 0-64Z" fill="#D95D5D" p-id="1607"></path>
  <path d="M320 704l448 0 0 64-448 0 0-64Z" fill="#D95D5D" p-id="1608"></path>
  <path d="M320 64l64 0 0 64-64 0 0-64Z" fill="#D95D5D" p-id="1609"></path>
  <path d="M832 75.776l0 65.984C872.64 161.152 896 200.704 896 256l0 576c0 66.688-45.312 128-128 128L192 960c-61.312 0-128-64-128-128L64 256c0-46.592 25.6-87.872 64-110.272L128 75.776C53.568 102.208 0 172.544 0 256l0 576c0 106.048 85.952 192 192 192l576 0c106.048 0 192-85.952 192-192L960 256C960 172.544 906.432 102.208 832 75.776z" fill="#D95D5D" p-id="1610"></path>
  <path d="M576 64l64 0 0 64-64 0 0-64Z" fill="#D95D5D" p-id="1611"></path>
  <path d="M192 0l64 0 0 192-64 0 0-192Z" fill="#D95D5D" p-id="1612"></path>
  <path d="M448 0l64 0 0 192-64 0 0-192Z" fill="#D95D5D" p-id="1613"></path>
  <path d="M704 0l64 0 0 192-64 0 0-192Z" fill="#D95D5D" p-id="1614"></path>
</svg>