<svg width="25" height="25" viewBox="0 0 25 25" fill="none" xmlns="http://www.w3.org/2000/svg">
<g id="design/pencil">
<path id="Vector" d="M18.5043 2.08333C17.9248 2.08149 17.3506 2.19483 16.8152 2.41674C16.2799 2.63866 15.7939 2.96474 15.3856 3.37604L3.28663 15.474C3.13143 15.6294 3.02935 15.8299 2.99496 16.0469L2.09601 21.7115C2.07009 21.874 2.08305 22.0403 2.13382 22.1969C2.18459 22.3534 2.27174 22.4957 2.3881 22.6121C2.50447 22.7284 2.64676 22.8156 2.8033 22.8664C2.95985 22.9171 3.1262 22.9301 3.28871 22.9042L8.95851 22.0052C9.17545 21.9708 9.37598 21.8687 9.53142 21.7135L21.6241 9.61458C22.2411 8.99712 22.661 8.21056 22.8308 7.35439C23.0007 6.49822 22.9128 5.61092 22.5782 4.80472C22.2437 3.99852 21.6776 3.30965 20.9515 2.82523C20.2254 2.34082 19.372 2.08263 18.4991 2.08333H18.5043ZM8.29184 20L4.37517 20.625L5.00017 16.7115L13.7398 7.97083L17.0335 11.2646L8.29184 20ZM20.1512 8.14167L18.5054 9.79167L15.2085 6.49479L16.8554 4.84896C17.2989 4.42557 17.8885 4.18933 18.5017 4.18933C19.1149 4.18933 19.7045 4.42557 20.1481 4.84896C20.3644 5.06508 20.5361 5.32172 20.6532 5.60422C20.7703 5.88671 20.8305 6.18951 20.8305 6.49531C20.8305 6.80111 20.7703 7.10392 20.6532 7.38641C20.5361 7.6689 20.3644 7.92555 20.1481 8.14167H20.1512Z" fill="#D95D5D"/>
</g>
</svg>
