<svg width="19" height="23" viewBox="0 0 19 23" fill="none" xmlns="http://www.w3.org/2000/svg">
<path id="Vector" d="M0.661459 22.8281C0.824154 22.9182 1.00801 22.9631 1.19394 22.9582C1.37987 22.9532 1.56108 22.8986 1.71875 22.8L9.5 17.9364L17.2812 22.8C17.4389 22.8985 17.6201 22.9531 17.806 22.9579C17.9919 22.9628 18.1757 22.9179 18.3383 22.8277C18.5009 22.7376 18.6365 22.6055 18.7309 22.4453C18.8252 22.2851 18.875 22.1026 18.875 21.9166V3.16663C18.875 2.33782 18.5458 1.54297 17.9597 0.956917C17.3737 0.370866 16.5788 0.041626 15.75 0.041626H3.25C2.4212 0.041626 1.62634 0.370866 1.04029 0.956917C0.45424 1.54297 0.125 2.33782 0.125 3.16663V21.9166C0.12491 22.1026 0.174614 22.2852 0.26895 22.4455C0.363287 22.6058 0.498815 22.7379 0.661459 22.8281V22.8281ZM2.20833 3.16663C2.20833 2.89036 2.31808 2.62541 2.51343 2.43006C2.70878 2.23471 2.97373 2.12496 3.25 2.12496H15.75C16.0263 2.12496 16.2912 2.23471 16.4866 2.43006C16.6819 2.62541 16.7917 2.89036 16.7917 3.16663V20.0416L10.0521 15.8291C9.88653 15.7257 9.69523 15.6708 9.5 15.6708C9.30477 15.6708 9.11347 15.7257 8.94792 15.8291L2.20833 20.0416V3.16663Z" fill="#D95D5D"/>
</svg>
