<?xml version="1.0" standalone="no"?><!DOCTYPE svg PUBLIC "-//W3C//DTD SVG 1.1//EN" "http://www.w3.org/Graphics/SVG/1.1/DTD/svg11.dtd"><svg t="1691561526177" class="icon" viewBox="0 0 1024 1024" version="1.1" xmlns="http://www.w3.org/2000/svg" p-id="7891" xmlns:xlink="http://www.w3.org/1999/xlink" width="256" height="256"><path d="M448 704 576 704 576 832 448 832zM704 256C739.36 256 768 284.64 768 320L768 512 576 640 448 640 448 576 640 448 640 384 320 384 320 256 704 256ZM512 96C400.896 96 296.416 139.264 217.856 217.856 139.264 296.416 96 400.896 96 512 96 623.104 139.264 727.584 217.856 806.144 296.416 884.736 400.896 928 512 928 623.104 928 727.584 884.736 806.144 806.144 884.736 727.584 928 623.104 928 512 928 400.896 884.736 296.416 806.144 217.856 727.584 139.264 623.104 96 512 96ZM512 0 512 0C794.784 0 1024 229.216 1024 512 1024 794.784 794.784 1024 512 1024 229.216 1024 0 794.784 0 512 0 229.216 229.216 0 512 0Z" fill="#000000" p-id="7892"></path></svg>