<svg width="25" height="25" viewBox="0 0 25 25" fill="none" xmlns="http://www.w3.org/2000/svg">
<g id="users/profile">
<path id="Vector" d="M12.5 11.4583C13.5301 11.4583 14.5371 11.1529 15.3936 10.5806C16.2501 10.0083 16.9177 9.19484 17.3119 8.24314C17.7061 7.29144 17.8092 6.24422 17.6083 5.2339C17.4073 4.22359 16.9112 3.29555 16.1828 2.56715C15.4544 1.83875 14.5264 1.34271 13.5161 1.14174C12.5058 0.940778 11.4586 1.04392 10.5069 1.43813C9.55516 1.83233 8.74173 2.4999 8.16943 3.35641C7.59713 4.21291 7.29167 5.21989 7.29167 6.25C7.29332 7.63083 7.84259 8.95463 8.81898 9.93102C9.79537 10.9074 11.1192 11.4567 12.5 11.4583ZM12.5 3.125C13.1181 3.125 13.7223 3.30828 14.2362 3.65166C14.7501 3.99504 15.1506 4.4831 15.3871 5.05411C15.6236 5.62513 15.6855 6.25347 15.565 6.85966C15.4444 7.46585 15.1467 8.02267 14.7097 8.45971C14.2727 8.89675 13.7158 9.19438 13.1097 9.31495C12.5035 9.43553 11.8751 9.37365 11.3041 9.13712C10.7331 8.9006 10.245 8.50006 9.90166 7.98616C9.55828 7.47225 9.375 6.86807 9.375 6.25C9.375 5.4212 9.70424 4.62634 10.2903 4.04029C10.8763 3.45424 11.6712 3.125 12.5 3.125ZM3.125 22.9167V18.75C3.12665 17.3692 3.67592 16.0454 4.65231 15.069C5.62871 14.0926 6.95251 13.5433 8.33333 13.5417H16.6667C18.0475 13.5433 19.3713 14.0926 20.3477 15.069C21.3241 16.0454 21.8733 17.3692 21.875 18.75V22.9167C21.875 23.1929 21.7653 23.4579 21.5699 23.6532C21.3746 23.8486 21.1096 23.9583 20.8333 23.9583C20.5571 23.9583 20.2921 23.8486 20.0968 23.6532C19.9014 23.4579 19.7917 23.1929 19.7917 22.9167V18.75C19.7917 17.9212 19.4624 17.1263 18.8764 16.5403C18.2903 15.9542 17.4955 15.625 16.6667 15.625H8.33333C7.50453 15.625 6.70968 15.9542 6.12362 16.5403C5.53757 17.1263 5.20833 17.9212 5.20833 18.75V22.9167C5.20833 23.1929 5.09859 23.4579 4.90324 23.6532C4.70789 23.8486 4.44293 23.9583 4.16667 23.9583C3.8904 23.9583 3.62545 23.8486 3.4301 23.6532C3.23475 23.4579 3.125 23.1929 3.125 22.9167Z" fill="#D95D5D"/>
</g>
</svg>
