<?xml version="1.0" standalone="no"?><!DOCTYPE svg PUBLIC "-//W3C//DTD SVG 1.1//EN" "http://www.w3.org/Graphics/SVG/1.1/DTD/svg11.dtd"><svg t="1690443145985" class="icon" viewBox="0 0 1024 1024" version="1.1" xmlns="http://www.w3.org/2000/svg" p-id="3082" xmlns:xlink="http://www.w3.org/1999/xlink" width="256" height="256"><path d="M528.8 883.2H191.4c-3.8 0-7.8-0.2-11.6-0.6-3.8-0.4-7.6-1-11.4-1.6-3.8-0.8-7.6-1.6-11.2-2.8-3.8-1.2-7.4-2.4-11-4-3.6-1.4-7-3.2-10.4-5-3.4-1.8-6.8-3.8-10-6s-6.4-4.4-9.4-7c-3-2.4-5.8-5-8.6-7.8s-5.4-5.6-7.8-8.6c-2.4-3-4.8-6.2-6.8-9.4-2.2-3.2-4.2-6.6-6-10-1.8-3.4-3.4-7-5-10.4-1.4-3.6-2.8-7.2-4-11-1.2-3.8-2-7.4-2.8-11.2-0.8-3.8-1.4-7.6-1.8-11.4-0.4-3.8-0.6-7.8-0.6-11.6v-506c0-3.8 0.2-7.8 0.6-11.6 0.4-3.8 1-7.6 1.8-11.4 0.8-3.8 1.6-7.6 2.8-11.2 1.2-3.8 2.4-7.4 4-11 1.4-3.6 3.2-7 5-10.4 1.8-3.4 3.8-6.8 6-10s4.4-6.4 7-9.4c2.4-3 5-5.8 7.8-8.6s5.6-5.4 8.6-7.8c3-2.4 6.2-4.8 9.4-7s6.6-4.2 10-6c3.4-1.8 7-3.4 10.4-5 3.6-1.4 7.2-2.8 11-4 3.8-1.2 7.4-2 11.2-2.8 3.8-0.8 7.6-1.4 11.4-1.8 3.8-0.4 7.8-0.6 11.6-0.6H512c30.6 0 63 11.6 89 31.8 29.2 23 46 54.4 46 86.2v84.4c0 18.6-15.2 33.8-33.8 33.8s-33.8-15.2-33.8-33.8v-84.4c0-24.2-35.4-50.6-67.6-50.6H191.4c-1.6 0-3.4 0-5 0.2s-3.2 0.4-5 0.8l-4.8 1.2c-1.6 0.4-3.2 1-4.6 1.6-1.6 0.6-3 1.4-4.4 2.2-1.4 0.8-2.8 1.6-4.2 2.6-1.4 1-2.8 2-4 3-1.2 1-2.6 2.2-3.6 3.4-1.2 1.2-2.2 2.4-3.4 3.6-1 1.2-2 2.6-3 4s-1.8 2.8-2.6 4.2c-0.8 1.4-1.4 3-2.2 4.4-0.6 1.6-1.2 3-1.6 4.6l-1.2 4.8c-0.4 1.6-0.6 3.2-0.8 5-0.2 1.6-0.2 3.4-0.2 5v506.2c0 1.6 0 3.4 0.2 5s0.4 3.2 0.8 5l1.2 4.8c0.4 1.6 1 3.2 1.6 4.6 0.6 1.6 1.4 3 2.2 4.4 0.8 1.4 1.6 3 2.6 4.2 1 1.4 2 2.8 3 4 1 1.2 2.2 2.6 3.4 3.6 1.2 1.2 2.4 2.2 3.6 3.4 1.2 1 2.6 2 4 3s2.8 1.8 4.2 2.6c1.4 0.8 3 1.4 4.4 2.2 1.6 0.6 3 1.2 4.6 1.6l4.8 1.2c1.6 0.4 3.2 0.6 5 0.8 1.6 0.2 3.4 0.2 5 0.2h337.6c1.6 0 3.4 0 5-0.2s3.4-0.4 5-0.8l4.8-1.2c1.6-0.4 3.2-1 4.6-1.6 1.6-0.6 3-1.4 4.6-2.2 1.4-0.8 2.8-1.6 4.2-2.6 1.4-1 2.8-2 4-3 1.2-1 2.6-2.2 3.6-3.4 1.2-1.2 2.2-2.4 3.4-3.6 1-1.2 2-2.6 3-4s1.8-2.8 2.6-4.2c0.8-1.4 1.4-3 2.2-4.6 0.6-1.6 1.2-3 1.6-4.6l1.2-4.8c0.4-1.6 0.6-3.2 0.8-5 0.2-1.6 0.2-3.2 0.2-5v-84.4c0-18.6 15.2-33.8 33.8-33.8s33.8 15.2 33.8 33.8v84.4c0 3.8-0.2 7.8-0.6 11.6-0.4 3.8-1 7.6-1.6 11.4-0.8 3.8-1.6 7.6-2.8 11.2-1.2 3.8-2.4 7.4-4 11-1.4 3.6-3.2 7-5 10.4-1.8 3.4-3.8 6.8-6 10s-4.4 6.4-7 9.4c-2.4 3-5 5.8-7.8 8.6s-5.6 5.4-8.6 7.8c-3 2.4-6.2 4.8-9.4 7s-6.6 4.2-10 6c-3.4 1.8-7 3.4-10.4 5-3.6 1.4-7.2 2.8-11 4-3.8 1.2-7.4 2-11.2 2.8-3.8 0.8-7.6 1.4-11.4 1.6-4 1-7.8 1.2-11.8 1.2z m219.4-168.8c-8.6 0-17.2-3.2-23.8-9.8-13.2-13.2-13.2-34.6 0-47.8l111.2-111.2H343.2c-18.6 0-33.8-15.2-33.8-33.8 0-18.6 15.2-33.8 33.8-33.8h492.2l-111.2-111.2c-13.2-13.2-13.2-34.6 0-47.8 13.2-13.2 34.6-13.2 47.8 0l168.8 168.8c13.2 13.2 13.2 34.6 0 47.8L772 704.4c-6.4 6.8-15.2 10-23.8 10z" p-id="3083" fill="#D95D5D"></path></svg>