<?xml version="1.0" standalone="no"?><!DOCTYPE svg PUBLIC "-//W3C//DTD SVG 1.1//EN" "http://www.w3.org/Graphics/SVG/1.1/DTD/svg11.dtd"><svg t="1691561298508" class="icon" viewBox="0 0 1024 1024" version="1.1" xmlns="http://www.w3.org/2000/svg" p-id="6913" xmlns:xlink="http://www.w3.org/1999/xlink" width="256" height="256"><path d="M410.368 810.667l-73.536 147.072a42.667 42.667 0 0 1-76.33-38.144l54.463-108.928H85.333A42.667 42.667 0 0 1 42.667 768V170.667A42.667 42.667 0 0 1 85.333 128h384V85.333a42.667 42.667 0 1 1 85.334 0V128h384a42.667 42.667 0 0 1 42.666 42.667V768a42.667 42.667 0 0 1-42.666 42.667H709.035l54.464 108.928a42.667 42.667 0 0 1-76.331 38.144l-73.536-147.072H410.368z m-27.221-85.334H896v-512H128v512h255.147z" fill="" p-id="6914"></path></svg>