<svg width="25" height="30" viewBox="0 0 25 30" fill="none" xmlns="http://www.w3.org/2000/svg">
<path id="name-icon" d="M17.2402 25.4616C18.5661 25.2126 19.564 24.1294 19.564 22.8309C19.564 21.3483 18.2632 20.1465 16.6586 20.1465H13.7156M17.2402 25.4616C17.0523 25.4968 16.8578 25.5154 16.6586 25.5154H16.2257V26.8007C16.7203 26.715 17.8022 26.6979 18.1732 27.3148C18.5441 27.9317 18.5544 28.4286 18.5132 28.6H8.65723M17.2402 25.4616L19.1005 25.9439C19.4962 26.1038 20.8432 27.905 21.4614 28.6C21.4614 28.6 22.915 28.6 23.7739 28.6C23.9061 26.9298 22.7999 26.9299 22.0993 26.3397L22.2646 16.8856C22.2646 15.6504 22.2646 15.5982 22.2646 15.294C22.2646 14.9897 21.6326 12.0939 21.4614 11.9003C20.9619 8.71818 24.0212 10.4624 23.923 8.43662C24.357 7.98083 22.848 5.96199 22.0993 5.20934C22.3779 4.57442 21.8848 2.13856 21.6034 1L18.9537 3.49712C18.9409 3.49696 18.9282 3.49688 18.9154 3.49688C18.4713 3.49688 18.0352 3.55267 17.6181 3.6573C17.5134 2.61227 17.1748 0.659595 16.6586 1.20917C16.1423 1.75875 14.9458 4.78559 14.4121 6.23031C14.2262 6.66701 14.1235 7.13999 14.1235 7.63694C14.1235 8.8555 13.8371 10.3893 14.3458 11.5773H14.3093C9.11934 11.5773 4.91206 15.2622 4.91206 19.8079C4.91206 22.1436 6.87297 24.9867 8.65723 26.4847V28.6M8.65723 28.6C5.9602 28.5433 2.23595 28.3181 1.22798 22.8309C0.421889 18.4427 1.71024 16.5636 5.78397 12.7997C7.65494 11.0711 9.33245 8.51802 6.82699 6.23031" stroke="#D95D5D" stroke-width="2" stroke-linecap="round" stroke-linejoin="round"/>
</svg>
