<svg viewBox="0 0 256 256" xmlns="http://www.w3.org/2000/svg" fill-rule="evenodd" clip-rule="evenodd" stroke-linejoin="round" stroke-miterlimit="2">
  <path d="M122 153h16v16h-16v-16zm32-56c4.388 0 8 3.611 8 8v24l-24 16h-16v-8l24-16v-8h-40V97h48zm-24-20c-13.888 0-26.948 5.408-36.768 15.232C83.412 102.056 78 115.112 78 129c0 13.888 5.408 26.948 15.232 36.768C103.056 175.588 116.112 181 130 181c13.888 0 26.948-5.408 36.768-15.232C176.588 155.944 182 142.888 182 129c0-13.888-5.408-26.948-15.232-36.768C156.944 82.412 143.888 77 130 77zm0-12c35.348 0 64 28.652 64 64s-28.652 64-64 64-64-28.652-64-64 28.652-64 64-64z" fill="#D95D5D" fill-rule="nonzero" /></svg>