<svg width="43" height="46" viewBox="0 0 43 46" fill="none" xmlns="http://www.w3.org/2000/svg">
<g id="arrow/turn-right">
<path id="Vector" d="M40.68 30.3669L31.7223 39.7931C31.3845 40.1365 30.9319 40.3265 30.4622 40.3223C29.9924 40.318 29.5431 40.1197 29.2109 39.7701C28.8788 39.4206 28.6904 38.9478 28.6863 38.4535C28.6822 37.9592 28.8628 37.4829 29.1891 37.1274L35.0904 30.9174L13.4379 30.9174C10.3495 30.9174 7.38756 29.6263 5.2037 27.3282C3.01985 25.0301 1.79297 21.9133 1.79297 18.6633C1.79297 15.4133 3.01985 12.2964 5.2037 9.99832C7.38756 7.70023 10.3495 6.40918 13.4379 6.40918L21.4999 6.40918C21.975 6.40918 22.4307 6.6078 22.7667 6.96136C23.1026 7.31491 23.2914 7.79443 23.2914 8.29443C23.2914 8.79442 23.1026 9.27394 22.7667 9.6275C22.4307 9.98105 21.975 10.1797 21.4999 10.1797L13.4379 10.1797C11.2998 10.1797 9.24922 11.0735 7.73732 12.6645C6.22542 14.2554 5.37604 16.4133 5.37604 18.6633C5.37604 20.9133 6.22542 23.0711 7.73732 24.6621C9.24922 26.2531 11.2998 27.1469 13.4379 27.1469L35.0904 27.1469L29.1909 20.9388C28.8646 20.5832 28.684 20.107 28.6881 19.6127C28.6922 19.1184 28.8806 18.6455 29.2127 18.296C29.5449 17.9465 29.9942 17.7482 30.464 17.7439C30.9337 17.7396 31.3863 17.9296 31.7241 18.273L40.6818 27.6993C40.8483 27.8745 40.9803 28.0825 41.0703 28.3114C41.1603 28.5404 41.2065 28.7857 41.2064 29.0335C41.2062 29.2812 41.1596 29.5265 41.0693 29.7553C40.979 29.9841 40.8467 30.1919 40.68 30.3669Z" fill="#D95D5D"/>
</g>
</svg>
