<svg width="40" height="40" viewBox="0 0 40 40" fill="none" xmlns="http://www.w3.org/2000/svg">
<g id="arrow/up-md">
<path id="Vector" d="M18.8233 2.15497C19.1359 1.84252 19.5597 1.66699 20.0017 1.66699C20.4436 1.66699 20.8674 1.84252 21.18 2.15497L31.18 12.155C31.4836 12.4693 31.6516 12.8903 31.6478 13.3273C31.644 13.7643 31.4687 14.1823 31.1597 14.4913C30.8507 14.8003 30.4327 14.9756 29.9957 14.9794C29.5587 14.9832 29.1377 14.8152 28.8233 14.5116L21.6683 7.35664V36.6666C21.6683 37.1087 21.4927 37.5326 21.1802 37.8451C20.8676 38.1577 20.4437 38.3333 20.0017 38.3333C19.5596 38.3333 19.1357 38.1577 18.8231 37.8451C18.5106 37.5326 18.335 37.1087 18.335 36.6666V7.35664L11.18 14.5116C10.8657 14.8152 10.4446 14.9832 10.0077 14.9794C9.57066 14.9756 9.15264 14.8003 8.84362 14.4913C8.53461 14.1823 8.35933 13.7643 8.35553 13.3273C8.35173 12.8903 8.51973 12.4693 8.82332 12.155L18.8233 2.15497Z" fill="white"/>
</g>
</svg>
