<svg width="54" height="54" viewBox="0 0 54 54" fill="none" xmlns="http://www.w3.org/2000/svg">
<g id="UserCircle">
<path id="Vector" d="M27 47.25C38.1838 47.25 47.25 38.1838 47.25 27C47.25 15.8162 38.1838 6.75 27 6.75C15.8162 6.75 6.75 15.8162 6.75 27C6.75 38.1838 15.8162 47.25 27 47.25Z" stroke="#424242" stroke-width="2" stroke-linecap="round" stroke-linejoin="round"/>
<path id="Vector_2" d="M27 33.75C31.6599 33.75 35.4375 29.9724 35.4375 25.3125C35.4375 20.6526 31.6599 16.875 27 16.875C22.3401 16.875 18.5625 20.6526 18.5625 25.3125C18.5625 29.9724 22.3401 33.75 27 33.75Z" stroke="#424242" stroke-width="2" stroke-linecap="round" stroke-linejoin="round"/>
<path id="Vector_3" d="M13.4578 42.0608C14.7275 39.5599 16.6648 37.4595 19.0551 35.9923C21.4454 34.5252 24.1953 33.7485 27 33.7485C29.8047 33.7485 32.5546 34.5252 34.9449 35.9923C37.3352 37.4595 39.2725 39.5599 40.5422 42.0608" stroke="#424242" stroke-width="2" stroke-linecap="round" stroke-linejoin="round"/>
</g>
</svg>
