<svg width="70" height="70" viewBox="0 0 70 70" fill="none" xmlns="http://www.w3.org/2000/svg">
<path d="M35.0003 2.91669C28.6549 2.91669 22.4519 4.79834 17.1758 8.3237C11.8997 11.8491 7.78752 16.8598 5.35921 22.7223C2.93089 28.5847 2.29554 35.0356 3.53348 41.2592C4.77142 47.4827 7.82706 53.1994 12.314 57.6864C16.8009 62.1733 22.5176 65.2289 28.7412 66.4669C34.9648 67.7048 41.4156 67.0695 47.2781 64.6412C53.1406 62.2128 58.1513 58.1006 61.6767 52.8246C65.202 47.5485 67.0837 41.3455 67.0837 35C67.0736 26.4941 63.6902 18.3394 57.6756 12.3248C51.661 6.31014 43.5063 2.92672 35.0003 2.91669ZM35.0003 61.25C29.8086 61.25 24.7334 59.7105 20.4166 56.8261C16.0998 53.9417 12.7353 49.842 10.7485 45.0455C8.7617 40.2489 8.24186 34.9709 9.25473 29.8789C10.2676 24.7869 12.7677 20.1096 16.4388 16.4385C20.1099 12.7673 24.7872 10.2673 29.8792 9.25441C34.9712 8.24154 40.2492 8.76138 45.0458 10.7482C49.8423 12.735 53.942 16.0995 56.8264 20.4163C59.7108 24.7331 61.2503 29.8083 61.2503 35C61.2419 41.9593 58.4735 48.6312 53.5525 53.5522C48.6315 58.4732 41.9597 61.2415 35.0003 61.25ZM37.917 52.5H32.0837V46.6667H37.917V52.5ZM37.917 40.8334H32.0837V17.5H37.917V40.8334Z" fill="#F25757"/>
</svg>
