<svg width="66" height="66" viewBox="0 0 66 66" fill="none" xmlns="http://www.w3.org/2000/svg">
<path d="M33.0003 0.916687C26.6549 0.916687 20.4519 2.79834 15.1758 6.3237C9.89972 9.84907 5.78752 14.8598 3.35921 20.7223C0.930894 26.5847 0.295536 33.0356 1.53348 39.2592C2.77142 45.4827 5.82706 51.1994 10.314 55.6864C14.8009 60.1733 20.5176 63.2289 26.7412 64.4669C32.9648 65.7048 39.4156 65.0695 45.2781 62.6412C51.1406 60.2128 56.1513 56.1006 59.6767 50.8246C63.202 45.5485 65.0837 39.3455 65.0837 33C65.0736 24.4941 61.6902 16.3394 55.6756 10.3248C49.661 4.31014 41.5063 0.926722 33.0003 0.916687V0.916687ZM33.0003 59.25C27.8086 59.25 22.7334 57.7105 18.4166 54.8261C14.0998 51.9417 10.7353 47.842 8.7485 43.0455C6.7617 38.2489 6.24186 32.9709 7.25473 27.8789C8.26759 22.7869 10.7677 18.1096 14.4388 14.4385C18.1099 10.7673 22.7872 8.26727 27.8792 7.25441C32.9712 6.24154 38.2492 6.76138 43.0458 8.74818C47.8423 10.735 51.942 14.0995 54.8264 18.4163C57.7108 22.7331 59.2503 27.8083 59.2503 33C59.2419 39.9593 56.4735 46.6312 51.5525 51.5522C46.6315 56.4732 39.9597 59.2415 33.0003 59.25V59.25ZM35.917 50.5H30.0837V44.6667H35.917V50.5ZM35.917 38.8334H30.0837V15.5H35.917V38.8334Z" fill="#F25757"/>
</svg>
