<svg width="70" height="70" viewBox="0 0 70 70" fill="none" xmlns="http://www.w3.org/2000/svg">
<path d="M34.9994 2.91666C28.6539 2.91666 22.4509 4.79831 17.1748 8.32367C11.8987 11.849 7.78654 16.8598 5.35823 22.7222C2.92992 28.5847 2.29456 35.0356 3.5325 41.2591C4.77044 47.4827 7.82609 53.1994 12.313 57.6863C16.8 62.1733 22.5167 65.2289 28.7402 66.4669C34.9638 67.7048 41.4147 67.0694 47.2771 64.6411C53.1396 62.2128 58.1503 58.1006 61.6757 52.8245C65.201 47.5485 67.0827 41.3455 67.0827 35C67.0727 26.494 63.6892 18.3393 57.6746 12.3247C51.66 6.31011 43.5053 2.92669 34.9994 2.91666ZM34.9994 61.25C29.8076 61.25 24.7324 59.7105 20.4156 56.8261C16.0989 53.9417 12.7343 49.842 10.7475 45.0454C8.76073 40.2489 8.24089 34.9709 9.25375 29.8789C10.2666 24.7869 12.7667 20.1096 16.4378 16.4384C20.1089 12.7673 24.7862 10.2672 29.8782 9.25438C34.9702 8.24151 40.2482 8.76135 45.0448 10.7482C49.8414 12.735 53.9411 16.0995 56.8254 20.4163C59.7098 24.7331 61.2494 29.8082 61.2494 35C61.2409 41.9593 58.4725 48.6312 53.5515 53.5522C48.6306 58.4732 41.9587 61.2415 34.9994 61.25ZM37.916 52.5H32.0827V46.6667H37.916V52.5ZM37.916 40.8333H32.0827V17.5H37.916V40.8333Z" fill="#4AA578"/>
</svg>
