<svg width="70" height="70" viewBox="0 0 70 70" fill="none" xmlns="http://www.w3.org/2000/svg">
<path d="M34.9994 2.91675C28.6539 2.91675 22.4509 4.7984 17.1748 8.32376C11.8987 11.8491 7.78654 16.8599 5.35823 22.7223C2.92992 28.5848 2.29456 35.0357 3.5325 41.2592C4.77044 47.4828 7.82609 53.1995 12.313 57.6864C16.8 62.1734 22.5167 65.229 28.7402 66.4669C34.9638 67.7049 41.4147 67.0695 47.2771 64.6412C53.1396 62.2129 58.1503 58.1007 61.6757 52.8246C65.201 47.5485 67.0827 41.3456 67.0827 35.0001C67.0727 26.4941 63.6892 18.3394 57.6746 12.3248C51.66 6.3102 43.5053 2.92678 34.9994 2.91675ZM34.9994 61.2501C29.8076 61.2501 24.7324 59.7105 20.4156 56.8262C16.0989 53.9418 12.7343 49.8421 10.7475 45.0455C8.76073 40.249 8.24089 34.971 9.25375 29.879C10.2666 24.787 12.7667 20.1097 16.4378 16.4385C20.1089 12.7674 24.7862 10.2673 29.8782 9.25447C34.9702 8.24161 40.2482 8.76144 45.0448 10.7482C49.8414 12.735 53.9411 16.0996 56.8254 20.4164C59.7098 24.7332 61.2494 29.8083 61.2494 35.0001C61.2409 41.9594 58.4725 48.6313 53.5515 53.5523C48.6306 58.4733 41.9587 61.2416 34.9994 61.2501ZM37.916 52.5001H32.0827V46.6667H37.916V52.5001ZM37.916 40.8334H32.0827V17.5001H37.916V40.8334Z" fill="#167B7D"/>
</svg>
