<svg viewBox="0 0 20 20" xmlns="http://www.w3.org/2000/svg" fill-rule="evenodd" clip-rule="evenodd" stroke-linecap="round" stroke-linejoin="round"><path d="M10 13.75a3.75 3.75 0 100-7.5 3.75 3.75 0 000 7.5z" fill="none" stroke="#424242"/><path d="M14.352 5.086c.198.182.385.37.562.562l2.133.305a8.12 8.12 0 01.797 1.922l-1.297 1.727s.023.531 0 .796l1.297 1.727a8.004 8.004 0 01-.797 1.922l-2.133.305s-.367.382-.562.562l-.305 2.133a8.12 8.12 0 01-1.922.797l-1.727-1.297a4.6 4.6 0 01-.796 0l-1.727 1.297a8.004 8.004 0 01-1.922-.797l-.305-2.133c-.192-.182-.38-.37-.562-.562l-2.133-.305a8.12 8.12 0 01-.797-1.922l1.297-1.727s-.023-.531 0-.796L2.156 7.875a8.004 8.004 0 01.797-1.922l2.133-.305c.182-.192.37-.38.562-.562l.305-2.133a8.12 8.12 0 011.922-.797l1.727 1.297a4.6 4.6 0 01.796 0l1.727-1.297a8.004 8.004 0 011.922.797l.305 2.133z" fill="none" stroke="#424242"/></svg>