<svg viewBox="0 0 250 41" xmlns="http://www.w3.org/2000/svg" fill-rule="evenodd" clip-rule="evenodd" stroke-linejoin="round" stroke-miterlimit="2"><path d="M94.185 30.065l-1.173 1.173a3.57 3.57 0 01-5.057 0c-.682-.683-1.085-1.575-1.085-2.52 0-.945.403-1.855 1.085-2.52a3.57 3.57 0 015.057 0c.543.543.858 1.225.998 1.943 1.119-1.575 1.715-3.483 1.715-5.32 0-2.485-.998-4.97-2.94-6.772-3.92-3.692-9.345-3.342-13.579.857l-1.12 1.173v8.749c.595.578 2.257 2.258 2.257 2.258.403.402.63.944.63 1.487 0 .595-.227 1.12-.63 1.54a2.25 2.25 0 01-1.487.595 2.35 2.35 0 01-1.54-.595 2.28 2.28 0 01-.595-1.54v-3.202l-1.435-1.435a.665.665 0 010-.945.665.665 0 01.945 0l.49.49v-6.037l-5.145 5.144c-.262.263-.717.263-.945 0a.666.666 0 010-.945h-.052l5.949-5.949h-5.512a.695.695 0 01-.682-.683c0-.367.315-.682.682-.682h5.687V8.892c0-.368.263-.683.683-.683.367 0 .682.315.682.683v7.314c.14-.14.175-.227.175-.227 4.777-4.742 10.972-5.092 15.434-.91 4.287 4.007 4.515 10.744.49 15.031l.018-.035zm-16.099-1.347v1.855c0 .227.052.402.227.542.14.175.315.228.543.228.175 0 .402-.053.542-.228a.738.738 0 00.228-.542.837.837 0 00-.228-.543s-.682-.629-1.312-1.312zm14.611 0c0-.595-.227-1.172-.63-1.575-.91-.857-2.292-.857-3.15 0-.402.403-.682.998-.682 1.575 0 .578.263 1.12.682 1.575.858.857 2.258.857 3.15 0 .403-.455.63-.997.63-1.575zM137.214 29.033a.666.666 0 010 .945 11.219 11.219 0 01-7.944 3.29 11.3 11.3 0 01-7.98-3.29.666.666 0 010-.945c.263-.263.718-.263.998 0a9.828 9.828 0 006.999 2.887c2.66 0 5.092-1.032 7-2.887a.663.663 0 01.944 0h-.017zm-.945-15.434h-.77v2.572a.695.695 0 01-.682.683.695.695 0 01-.683-.683v-2.572H122.27a.695.695 0 01-.682-.682c0-.368.315-.683.682-.683h11.864v-.77c0-1.172.945-2.117 2.118-2.117 1.172 0 2.117.945 2.117 2.117a2.114 2.114 0 01-2.117 2.118l.017.017zm.77-2.117a.765.765 0 00-.77-.77.766.766 0 00-.77.77v.77h.77c.403 0 .77-.368.77-.77zM161.625 20.056a.713.713 0 01-.228-.49c0-.14.088-.315.228-.455 0 0 4.55-4.602 6.23-6.229h-6.038a.695.695 0 01-.682-.683c0-.402.315-.682.682-.682h7.402l2.258-2.293a2.25 2.25 0 011.487-.595c.595 0 1.12.228 1.54.595.402.403.63.945.63 1.54 0 .543-.228 1.085-.63 1.488-.402.402-.945.63-1.54.63h-3.202l-7.175 7.174c-.262.263-.717.263-.945 0h-.017zm12.897.945v4.917h3.972c.367 0 .682.263.682.683a.695.695 0 01-.682.682h-3.972v2.205a3.552 3.552 0 01-3.57 3.57 3.54 3.54 0 01-3.57-3.57 3.54 3.54 0 013.57-3.57h2.205v-4.917c0-.402.315-.682.682-.682.368 0 .683.262.683.682zm-1.348 6.265h-2.205a2.207 2.207 0 00-2.205 2.205c0 1.207.998 2.204 2.205 2.204a2.217 2.217 0 002.205-2.204v-2.205zm-2.082-15.749h1.855a.738.738 0 00.542-.228.73.73 0 00.263-.542.656.656 0 00-.263-.543c-.14-.175-.315-.227-.542-.227a.74.74 0 00-.543.227l-1.312 1.313zm10.639 8.714s1.4-1.4 1.977-2.03l-2.292-2.292a.682.682 0 01-.175-.455c0-.192.088-.368.175-.49.262-.263.717-.263.997 0l2.293 2.31.542-.543a2.067 2.067 0 012.975 0c.402.403.63.945.63 1.488 0 .595-.228 1.12-.63 1.54-.402.42-.91.63-1.487.63a2.067 2.067 0 01-1.488-.63l-.542-.543-2.03 1.978a.666.666 0 01-.945 0c-.14-.14-.175-.315-.175-.49 0-.14.052-.315.175-.455v-.018zm3.92-2.03l.542.543c.14.175.315.262.543.262a.655.655 0 00.542-.262.738.738 0 00.228-.543c0-.175-.088-.367-.228-.542a.845.845 0 00-1.085 0l-.542.542zM222.94 30.748c2.293-2.292 2.293-6.09 0-8.434a6.034 6.034 0 00-4.235-1.768 6 6 0 00-4.007 1.575v3.202c0 .543-.227 1.085-.63 1.488-.402.402-.945.63-1.487.63-.595 0-1.12-.228-1.54-.63a2.093 2.093 0 01-.595-1.488c0-.595.175-1.085.595-1.487l2.292-2.292v-5.635c0-.402.263-.682.683-.682.367 0 .682.262.682.682v4.515c1.173-.77 2.573-1.225 4.007-1.225 1.943 0 3.798.77 5.18 2.17 2.835 2.834 2.835 7.489 0 10.376-1.4 1.348-3.255 2.118-5.18 2.118a.662.662 0 01-.682-.683c0-.367.315-.682.682-.682 1.575 0 3.115-.595 4.235-1.768v.018zm-9.607-7.262c-.682.63-1.312 1.312-1.312 1.312-.175.14-.228.315-.228.543 0 .175.053.402.228.542.14.14.315.228.542.228.175 0 .368-.088.543-.228a.833.833 0 00.227-.542v-1.855zm3.115-11.497l.998-.997c-.77-.368-1.26-1.085-1.26-1.943 0-1.172.945-2.169 2.117-2.169 1.172 0 2.117.997 2.117 2.117v.052c0 .543-.227 1.085-.63 1.488l-2.397 2.397a.665.665 0 01-.945 0c-.262-.262-.262-.717 0-.945zm2.397-2.397c.14-.175.228-.368.228-.543 0-.455-.368-.805-.77-.805-.455 0-.77.368-.77.805 0 .403.315.77.77.77.175 0 .367-.087.542-.227zM20.334 40.667C9.117 40.667 0 31.533 0 20.334 0 9.134 9.117 0 20.334 0c8.539 0 14.524 6.3 15.189 12.144.454 4.095-1.803 7.122-6.055 8.085-2.467.56-6.107-1.488-8.434-3.815-.333-.333-.648-.63-.945-.928-1.47-1.417-2.73-2.659-3.343-4.234-1.155-2.135-2.799-3.605-3.797-3.85-.017.14-.035.367.035.735.088.49.07 1.172.07 1.19 0 .192-.122.35-.297.402 0 0-.525.175-.91.438-.49.35-.84.735-.945 1.032-.018.053-.053.088-.07.14l-1.488 1.75c-.035.175.018.438.158.7.297.595.927 1.225 1.4 1.382 2.695.893 4.934 4.988 5.477 8.277.507 3.133 1.137 7.017.14 10.115a.14.14 0 01-.035.07c-.665 1.26-2.73 1.417-3.92 1.12-.875-.211-1.365-.683-1.365-1.26 0-1.33.823-1.733 1.558-2.1.56-.28 1.137-.56 1.61-1.278a.41.41 0 01.594-.122c.21.14.263.402.123.595-.595.91-1.347 1.277-1.942 1.575-.718.35-1.068.525-1.068 1.312 0 .105.228.28.718.403 1.05.262 2.519.035 2.922-.648.91-2.887.315-6.649-.193-9.677-.49-3.044-2.572-6.824-4.882-7.594-.7-.228-1.487-.998-1.907-1.82-.263-.542-.333-1.032-.193-1.435a.393.393 0 01.088-.14l1.505-1.767c.245-.578.857-1.103 1.207-1.365.28-.21.613-.368.858-.455 0-.21 0-.508-.053-.718-.227-1.19.14-1.592.315-1.714a.4.4 0 01.245-.07c1.593 0 3.675 2.239 4.83 4.357 0 0 0 .035.017.052.543 1.418 1.75 2.608 3.15 3.955.315.297.63.612.963.945 2.099 2.1 5.477 4.06 7.629 3.57 3.832-.875 5.792-3.483 5.39-7.14C34.07 6.72 28.173.84 20.369.84 9.607.875.875 9.607.875 20.334c0 10.726 8.732 19.458 19.459 19.458 10.726 0 19.458-8.732 19.458-19.458 0-1.733-.595-2.188-.77-2.275a.53.53 0 00-.595.052c-.21.14-.402.473-.332.963.735 4.864-4.952 15.101-11.602 16.221-3.797.647-6.352.193-6.859-1.225-.245-.7.122-1.487.91-1.96.682-.682 1.015-1.242.997-1.68 0-.455-.42-.84-.91-1.277-.49-.438-1.032-.945-1.277-1.662-.595-1.803.56-4.288 2.415-5.215.874-.438 3.184-1.12 5.494 2.17a.445.445 0 01-.105.612.445.445 0 01-.612-.105c-1.365-1.942-2.923-2.625-4.375-1.89-1.47.735-2.432 2.765-1.977 4.148.175.49.612.91 1.05 1.295.577.524 1.172 1.084 1.189 1.907 0 .7-.402 1.452-1.294 2.345a.318.318 0 01-.088.07c-.455.262-.682.63-.577.945.192.542 1.662 1.365 5.897.647 6.037-1.032 11.566-10.709 10.884-15.241-.105-.718.157-1.418.682-1.785a1.421 1.421 0 011.505-.123c.473.245 1.243.963 1.243 3.045 0 11.217-9.117 20.334-20.334 20.334l-.017.017z" fill="#fff" fill-rule="nonzero"/></svg>