<svg width="23" height="22" viewBox="0 0 23 22" fill="none" xmlns="http://www.w3.org/2000/svg">
<g id="MapPin">
<path id="Vector" d="M11.1017 11.6875C12.6205 11.6875 13.8517 10.4563 13.8517 8.9375C13.8517 7.41872 12.6205 6.1875 11.1017 6.1875C9.58296 6.1875 8.35175 7.41872 8.35175 8.9375C8.35175 10.4563 9.58296 11.6875 11.1017 11.6875Z" stroke="black" stroke-width="2" stroke-linecap="round" stroke-linejoin="round"/>
<path id="Vector_2" d="M17.9767 8.9375C17.9767 15.125 11.1017 19.9375 11.1017 19.9375C11.1017 19.9375 4.22675 15.125 4.22675 8.9375C4.22675 7.11414 4.95107 5.36545 6.24039 4.07614C7.5297 2.78683 9.27838 2.0625 11.1017 2.0625C12.9251 2.0625 14.6738 2.78683 15.9631 4.07614C17.2524 5.36545 17.9767 7.11414 17.9767 8.9375V8.9375Z" stroke="black" stroke-width="2" stroke-linecap="round" stroke-linejoin="round"/>
</g>
</svg>
