<svg width="15" height="15" viewBox="0 0 15 15" fill="none" xmlns="http://www.w3.org/2000/svg">
<g id="Play">
<path id="Vector" d="M13.3652 7.10153L4.93359 1.94528C4.86261 1.9015 4.78124 1.87745 4.69786 1.8756C4.61449 1.87376 4.53213 1.89419 4.45928 1.93479C4.38644 1.9754 4.32575 2.0347 4.28346 2.10658C4.24118 2.17846 4.21884 2.26033 4.21875 2.34372V12.6562C4.21884 12.7396 4.24118 12.8215 4.28346 12.8934C4.32575 12.9652 4.38644 13.0245 4.45928 13.0651C4.53213 13.1057 4.61449 13.1262 4.69786 13.1243C4.78124 13.1225 4.86261 13.0984 4.93359 13.0547L13.3652 7.89841C13.4345 7.85747 13.4918 7.79919 13.5317 7.72932C13.5715 7.65945 13.5925 7.58041 13.5925 7.49997C13.5925 7.41954 13.5715 7.34049 13.5317 7.27062C13.4918 7.20075 13.4345 7.14248 13.3652 7.10153V7.10153Z" stroke="white" stroke-width="2" stroke-linecap="round" stroke-linejoin="round"/>
</g>
</svg>
